PERFORMER "Robert Casadesus"
TITLE "Great Pianists of the 20th Century Vol 16 Robert Casadesus CD2"
FILE "Vol16b - Casadesus.mp3" MP3
  TRACK 01 AUDIO
    TITLE "En Blanc et noir (2 Pianos) - Avec emportement"
	PERFORMER "Claude Debussy"
    INDEX 01 00:00:00
  TRACK 02 AUDIO
    TITLE "En Blanc et noir (2 Pianos) - Lent Sombre"
	PERFORMER "Claude Debussy"
    INDEX 01 04:12:00
  TRACK 03 AUDIO
    TITLE "En Blanc et noir (2 Pianos) - Scherzando"
	PERFORMER "Claude Debussy"
    INDEX 01 10:16:00
  TRACK 04 AUDIO
    TITLE "Dolly Op 56 (2 Pianos) - Berceuse"
	PERFORMER "Claude Faure"
    INDEX 01 14:50:00
  TRACK 05 AUDIO
    TITLE "Dolly Op 56 (2 Pianos) - Mi-a-ou"
	PERFORMER "Claude Faure"
    INDEX 01 17:18:00
  TRACK 06 AUDIO
    TITLE "Dolly Op 56 (2 Pianos) - Le jardin de Dolly"
	PERFORMER "Claude Faure"
    INDEX 01 19:04:00
  TRACK 07 AUDIO
    TITLE "Dolly Op 56 (2 Pianos) - Kitty-Valse"
	PERFORMER "Claude Faure"
    INDEX 01 21:18:00
  TRACK 08 AUDIO
    TITLE "Dolly Op 56 (2 Pianos) - Tendresse"
	PERFORMER "Claude Faure"
    INDEX 01 23:42:00
  TRACK 09 AUDIO
    TITLE "Dolly Op 56 (2 Pianos) - Le pas espagnol"
	PERFORMER "Claude Faure"
    INDEX 01 27:01:00
  TRACK 10 AUDIO
    TITLE "Prelude in D flat Op 103 No 1"
	PERFORMER "Claude Faure"
    INDEX 01 29:07:00
  TRACK 11 AUDIO
    TITLE "Prelude in G minor Op 103 No 3"
	PERFORMER "Claude Faure"
    INDEX 01 32:25:00
  TRACK 12 AUDIO
    TITLE "Prelude in D minor Op 103 No 5"
	PERFORMER "Claude Faure"
    INDEX 01 35:46:00
  TRACK 13 AUDIO
    TITLE "Nocturne No 7 in C sharp minor Op 74"
	PERFORMER "Claude Faure"
    INDEX 01 37:59:00
  TRACK 14 AUDIO
    TITLE "Barcarolle No 5 in F sharp minor Op 66"
	PERFORMER "Claude Faure"
    INDEX 01 45:58:00
  TRACK 15 AUDIO
    TITLE "Impromptu No 5 in F sharp minor Op 102"
	PERFORMER "Claude Faure"
    INDEX 01 51:12:00
  TRACK 16 AUDIO
    TITLE "Piano Concerto in D (left hand)"
	PERFORMER "Maurice Ravel"
    INDEX 01 53:22:00
